#N canvas 448 117 576 441 10;
#X obj 45 109 tgl 15 0 empty empty empty 17 7 0 10 -262144 -1 -1 1
1;
#X floatatom 356 258 5 0 0 0 - - -;
#X floatatom 394 258 5 0 0 0 - - -;
#X floatatom 161 126 5 0 0 0 - - -;
#X floatatom 198 125 5 0 0 0 - - -;
#X msg 139 150 pwm a \$1;
#X msg 201 150 pwm b \$1;
#X floatatom 268 125 5 0 0 0 - - -;
#X msg 267 150 pwm c \$1;
#X floatatom 40 320 5 0 0 0 - - -;
#X msg 77 129 smooth 0;
#X floatatom 75 321 5 0 0 0 - - -;
#X floatatom 113 320 5 0 0 0 - - -;
#X floatatom 149 320 5 0 0 0 - - -;
#X floatatom 183 320 5 0 0 0 - - -;
#X floatatom 220 320 5 0 0 0 - - -;
#X floatatom 256 321 5 0 0 0 - - -;
#X floatatom 293 321 5 0 0 0 - - -;
#X floatatom 78 88 5 0 0 0 - - -;
#X msg 75 106 smooth \$1;
#X msg 267 175 input;
#X msg 357 208 output \$1;
#X obj 93 194 byron __________________;
#X text 265 111 fast PWM;
#X text 161 109 slow PWM;
#X obj 409 26 tgl 15 0 empty empty empty 17 7 0 10 -262144 -1 -1 0
1;
#X obj 431 26 tgl 15 0 empty empty empty 17 7 0 10 -262144 -1 -1 0
1;
#X obj 452 26 tgl 15 0 empty empty empty 17 7 0 10 -262144 -1 -1 0
1;
#X obj 474 26 tgl 15 0 empty empty empty 17 7 0 10 -262144 -1 -1 0
1;
#X obj 476 53 * 8;
#X obj 392 52 * 1;
#X obj 420 52 * 2;
#X obj 448 53 * 4;
#X obj 396 95 +;
#X obj 424 95 +;
#X obj 407 125 +;
#X obj 415 72 t b f;
#X obj 452 70 t b f;
#X obj 439 117 t b f;
#X obj 396 341 tgl 15 0 empty empty empty 17 7 0 10 -262144 -1 -1 0
2;
#X obj 418 341 tgl 15 0 empty empty empty 17 7 0 10 -262144 -1 -1 0
4;
#X obj 439 341 tgl 15 0 empty empty empty 17 7 0 10 -262144 -1 -1 0
8;
#X obj 375 341 tgl 15 0 empty empty empty 17 7 0 10 -262144 -1 -1 0
1;
#X obj 394 282 & 1;
#X obj 423 283 & 2;
#X obj 452 283 & 4;
#X obj 482 282 & 8;
#X text 24 94 connect;
#X text 36 338 analogue inputs;
#X text 304 175 set digital inputs;
#X text 418 6 or outputs;
#X connect 0 0 22 0;
#X connect 2 0 43 0;
#X connect 2 0 44 0;
#X connect 2 0 45 0;
#X connect 2 0 46 0;
#X connect 3 0 5 0;
#X connect 4 0 6 0;
#X connect 5 0 22 0;
#X connect 6 0 22 0;
#X connect 7 0 8 0;
#X connect 8 0 22 0;
#X connect 10 0 22 0;
#X connect 18 0 19 0;
#X connect 19 0 22 0;
#X connect 20 0 22 0;
#X connect 21 0 22 0;
#X connect 22 0 9 0;
#X connect 22 1 11 0;
#X connect 22 2 12 0;
#X connect 22 3 13 0;
#X connect 22 4 14 0;
#X connect 22 5 15 0;
#X connect 22 6 16 0;
#X connect 22 7 17 0;
#X connect 22 8 1 0;
#X connect 22 9 2 0;
#X connect 25 0 30 0;
#X connect 26 0 31 0;
#X connect 27 0 32 0;
#X connect 28 0 29 0;
#X connect 29 0 34 1;
#X connect 29 0 37 0;
#X connect 30 0 33 0;
#X connect 31 0 36 0;
#X connect 32 0 34 0;
#X connect 33 0 35 0;
#X connect 34 0 38 0;
#X connect 35 0 21 0;
#X connect 36 0 33 0;
#X connect 36 1 33 1;
#X connect 37 0 34 0;
#X connect 37 1 34 1;
#X connect 38 0 35 0;
#X connect 38 1 35 1;
#X connect 43 0 42 0;
#X connect 44 0 39 0;
#X connect 45 0 40 0;
#X connect 46 0 41 0;
